<?xml version="1.0" encoding="utf-8"?>
<!-- Generator: Adobe Illustrator 19.0.0, SVG Export Plug-In . SVG Version: 6.00 Build 0)  -->
<svg version="1.1" id="Laag_1" xmlns="http://www.w3.org/2000/svg" xmlns:xlink="http://www.w3.org/1999/xlink" x="0px" y="0px"
	 viewBox="0 0 255.3 255.3" style="enable-background:new 0 0 255.3 255.3;" xml:space="preserve">
<g id="XMLID_27_">
	<path id="XMLID_45_" d="M86,91v2c0,0.6-0.2,1.2-0.5,1.7l-15.2,21.5h15.4v4.4H63.1v-2.2c0-0.3,0-0.5,0.1-0.8
		c0.1-0.3,0.2-0.5,0.4-0.7l15.3-21.6H64.1V91H86z"/>
	<path id="XMLID_47_" d="M97.9,99.3c1.3,0,2.5,0.2,3.7,0.6c1.1,0.4,2.1,1,2.9,1.9c0.8,0.8,1.4,1.8,1.9,3c0.5,1.2,0.7,2.5,0.7,4
		c0,0.4,0,0.7-0.1,1c0,0.3-0.1,0.5-0.2,0.6s-0.2,0.2-0.4,0.3s-0.3,0.1-0.6,0.1h-13c0.2,2.2,0.7,3.7,1.7,4.8s2.4,1.5,4,1.5
		c0.8,0,1.5-0.1,2.1-0.3s1.1-0.4,1.6-0.6c0.4-0.2,0.8-0.4,1.2-0.6s0.7-0.3,1-0.3c0.2,0,0.4,0,0.5,0.1s0.3,0.2,0.4,0.3l1.5,1.8
		c-0.6,0.7-1.2,1.2-1.9,1.7s-1.4,0.8-2.2,1.1c-0.8,0.3-1.5,0.5-2.3,0.6s-1.5,0.2-2.3,0.2c-1.5,0-2.8-0.2-4.1-0.7
		c-1.3-0.5-2.4-1.2-3.3-2.2c-0.9-0.9-1.7-2.1-2.2-3.5c-0.5-1.4-0.8-3-0.8-4.9c0-1.4,0.2-2.8,0.7-4c0.5-1.3,1.1-2.4,2-3.3
		c0.9-0.9,1.9-1.7,3.2-2.2C94.9,99.6,96.4,99.3,97.9,99.3z M98,102.9c-1.5,0-2.6,0.4-3.5,1.3c-0.8,0.8-1.4,2-1.6,3.5h9.5
		c0-0.7-0.1-1.3-0.3-1.9s-0.5-1.1-0.8-1.5c-0.4-0.4-0.8-0.8-1.4-1S98.8,102.9,98,102.9z"/>
	<path id="XMLID_50_" d="M116.3,90.2v17.4h0.9c0.3,0,0.6,0,0.8-0.1c0.2-0.1,0.4-0.3,0.6-0.5l5.2-6.5c0.2-0.3,0.5-0.5,0.7-0.6
		c0.3-0.2,0.6-0.2,1-0.2h4.6l-6.5,7.8c-0.2,0.3-0.5,0.5-0.7,0.8s-0.5,0.4-0.8,0.6c0.3,0.2,0.5,0.4,0.8,0.7s0.4,0.6,0.7,0.9l7,10.2
		h-4.6c-0.4,0-0.7-0.1-1-0.2c-0.3-0.1-0.5-0.4-0.7-0.7l-5.4-8c-0.2-0.3-0.4-0.5-0.6-0.6c-0.2-0.1-0.5-0.1-0.9-0.1h-1.1v9.6h-5.1
		V90.2H116.3z"/>
	<path id="XMLID_52_" d="M141.2,99.3c1.3,0,2.5,0.2,3.7,0.6c1.1,0.4,2.1,1,2.9,1.9c0.8,0.8,1.4,1.8,1.9,3c0.5,1.2,0.7,2.5,0.7,4
		c0,0.4,0,0.7-0.1,1c0,0.3-0.1,0.5-0.2,0.6c-0.1,0.1-0.2,0.2-0.4,0.3s-0.3,0.1-0.6,0.1h-13c0.1,2.2,0.7,3.7,1.7,4.8
		c1,1,2.4,1.5,4,1.5c0.8,0,1.5-0.1,2.1-0.3s1.1-0.4,1.6-0.6s0.8-0.4,1.2-0.6s0.7-0.3,1-0.3c0.2,0,0.4,0,0.5,0.1s0.3,0.2,0.4,0.3
		l1.5,1.8c-0.6,0.7-1.2,1.2-1.9,1.7s-1.4,0.8-2.2,1.1c-0.8,0.3-1.5,0.5-2.3,0.6s-1.5,0.2-2.3,0.2c-1.5,0-2.8-0.2-4.1-0.7
		c-1.3-0.5-2.4-1.2-3.3-2.2c-0.9-0.9-1.7-2.1-2.2-3.5c-0.5-1.4-0.8-3-0.8-4.9c0-1.4,0.2-2.8,0.7-4c0.5-1.3,1.1-2.4,2-3.3
		c0.9-0.9,1.9-1.7,3.2-2.2C138.2,99.6,139.7,99.3,141.2,99.3z M141.3,102.9c-1.5,0-2.6,0.4-3.5,1.3c-0.8,0.8-1.4,2-1.6,3.5h9.5
		c0-0.7-0.1-1.3-0.3-1.9s-0.5-1.1-0.8-1.5s-0.8-0.8-1.4-1C142.7,103.1,142.1,102.9,141.3,102.9z"/>
	<path id="XMLID_55_" d="M154.4,120.7v-21h3c0.5,0,0.9,0.1,1.1,0.3s0.3,0.5,0.4,1l0.3,2.5c0.8-1.3,1.6-2.3,2.6-3.1
		c1-0.8,2.1-1.1,3.4-1.1c1,0,1.9,0.2,2.6,0.7l-0.7,3.8c0,0.2-0.1,0.4-0.3,0.5s-0.3,0.2-0.6,0.2c-0.2,0-0.5,0-0.8-0.1
		c-0.4-0.1-0.8-0.1-1.4-0.1c-1.1,0-2,0.3-2.7,0.9c-0.8,0.6-1.4,1.4-1.9,2.6v13.1H154.4z"/>
	<path id="XMLID_57_" d="M179.9,99.3c1.3,0,2.5,0.2,3.7,0.6c1.1,0.4,2.1,1,2.9,1.9c0.8,0.8,1.4,1.8,1.9,3c0.5,1.2,0.7,2.5,0.7,4
		c0,0.4,0,0.7-0.1,1c0,0.3-0.1,0.5-0.2,0.6c-0.1,0.1-0.2,0.2-0.4,0.3s-0.3,0.1-0.6,0.1h-13c0.1,2.2,0.7,3.7,1.7,4.8
		c1,1,2.4,1.5,4,1.5c0.8,0,1.5-0.1,2.1-0.3s1.1-0.4,1.6-0.6s0.8-0.4,1.2-0.6s0.7-0.3,1-0.3c0.2,0,0.4,0,0.5,0.1s0.3,0.2,0.4,0.3
		l1.5,1.8c-0.6,0.7-1.2,1.2-1.9,1.7s-1.4,0.8-2.2,1.1c-0.8,0.3-1.5,0.5-2.3,0.6s-1.5,0.2-2.3,0.2c-1.5,0-2.8-0.2-4.1-0.7
		c-1.3-0.5-2.4-1.2-3.3-2.2c-0.9-0.9-1.7-2.1-2.2-3.5c-0.5-1.4-0.8-3-0.8-4.9c0-1.4,0.2-2.8,0.7-4c0.5-1.3,1.1-2.4,2-3.3
		c0.9-0.9,1.9-1.7,3.2-2.2C176.9,99.6,178.3,99.3,179.9,99.3z M180,102.9c-1.5,0-2.6,0.4-3.5,1.3c-0.8,0.8-1.4,2-1.6,3.5h9.5
		c0-0.7-0.1-1.3-0.3-1.9s-0.5-1.1-0.8-1.5s-0.8-0.8-1.4-1C181.4,103.1,180.7,102.9,180,102.9z"/>
	<path id="XMLID_60_" d="M90.9,125.3v0.9c0,0.3-0.1,0.7-0.3,1l-22.5,31.4h22.6v2.1h-26v-0.9c0-0.3,0.1-0.6,0.3-0.9l22.5-31.4H65.4
		v-2.1H90.9z"/>
	<path id="XMLID_62_" d="M113.4,160.7c-0.5,0-0.8-0.2-0.9-0.7l-0.4-3.2c-0.7,0.7-1.4,1.3-2,1.8s-1.4,1-2.1,1.3
		c-0.7,0.4-1.5,0.6-2.4,0.8c-0.9,0.2-1.8,0.3-2.8,0.3c-0.9,0-1.7-0.1-2.5-0.4s-1.5-0.6-2.1-1.1s-1.1-1.2-1.5-2s-0.6-1.8-0.6-2.9
		c0-1,0.3-2,0.9-2.9c0.6-0.9,1.5-1.7,2.8-2.3c1.3-0.7,2.9-1.2,4.9-1.6c2-0.4,4.4-0.6,7.2-0.7v-2.6c0-2.3-0.5-4.1-1.5-5.3
		c-1-1.2-2.5-1.9-4.4-1.9c-1.2,0-2.2,0.2-3.1,0.5s-1.6,0.7-2.1,1.1c-0.6,0.4-1.1,0.8-1.4,1.1c-0.4,0.3-0.7,0.5-0.9,0.5
		c-0.3,0-0.6-0.2-0.8-0.5l-0.4-0.7c1.3-1.3,2.7-2.3,4.1-2.9c1.4-0.7,3.1-1,4.9-1c1.3,0,2.5,0.2,3.5,0.6c1,0.4,1.8,1,2.5,1.8
		c0.7,0.8,1.2,1.8,1.5,2.9c0.3,1.1,0.5,2.4,0.5,3.8v16.2H113.4z M103.4,159.4c1,0,1.9-0.1,2.7-0.3c0.8-0.2,1.6-0.5,2.3-0.9
		s1.3-0.8,1.9-1.3c0.6-0.5,1.2-1.1,1.8-1.7v-6.5c-2.4,0.1-4.4,0.2-6.1,0.5c-1.7,0.3-3.1,0.7-4.2,1.2s-1.9,1.1-2.4,1.8
		c-0.5,0.7-0.8,1.5-0.8,2.4c0,0.8,0.1,1.6,0.4,2.2c0.3,0.6,0.6,1.1,1.1,1.5s1,0.7,1.6,0.9C102.1,159.3,102.8,159.4,103.4,159.4z"/>
	<path id="XMLID_65_" d="M124.5,124.3v22.2h1.2c0.2,0,0.5,0,0.7-0.1s0.4-0.2,0.7-0.5l10-9.5c0.2-0.2,0.4-0.3,0.6-0.5
		c0.2-0.1,0.4-0.2,0.7-0.2h2.1l-11,10.4c-0.2,0.2-0.3,0.3-0.5,0.5c-0.1,0.1-0.3,0.3-0.5,0.4c0.3,0.1,0.5,0.3,0.7,0.5
		c0.2,0.2,0.4,0.4,0.6,0.6l11.5,12.5h-2.1c-0.2,0-0.4,0-0.6-0.1s-0.4-0.2-0.5-0.4l-10.5-11.2c-0.3-0.3-0.5-0.5-0.8-0.6
		c-0.2-0.1-0.6-0.2-1.1-0.2h-1.1v12.5h-2.4v-36.4H124.5z"/>
	<path id="XMLID_67_" d="M154.3,135.4c1.4,0,2.7,0.2,3.9,0.7s2.2,1.2,3.1,2.1s1.6,2.1,2.1,3.4c0.5,1.4,0.7,2.9,0.7,4.7
		c0,0.4-0.1,0.6-0.2,0.8c-0.1,0.1-0.3,0.2-0.5,0.2h-18v0.5c0,1.9,0.2,3.5,0.6,4.9c0.4,1.4,1.1,2.6,1.9,3.6c0.8,1,1.8,1.7,2.9,2.2
		c1.1,0.5,2.4,0.7,3.8,0.7c1.3,0,2.3-0.1,3.3-0.4c0.9-0.3,1.7-0.6,2.3-0.9c0.6-0.3,1.1-0.6,1.5-0.9c0.4-0.3,0.6-0.4,0.8-0.4
		c0.2,0,0.4,0.1,0.5,0.3l0.7,0.8c-0.4,0.5-0.9,1-1.6,1.4s-1.4,0.8-2.2,1.1s-1.7,0.6-2.6,0.7s-1.9,0.3-2.8,0.3
		c-1.7,0-3.3-0.3-4.6-0.9c-1.4-0.6-2.6-1.5-3.6-2.6c-1-1.1-1.8-2.5-2.3-4.2c-0.5-1.6-0.8-3.5-0.8-5.6c0-1.8,0.3-3.4,0.8-4.9
		c0.5-1.5,1.2-2.8,2.2-3.9c1-1.1,2.1-1.9,3.5-2.6C151,135.7,152.6,135.4,154.3,135.4z M154.4,137.2c-1.3,0-2.4,0.2-3.4,0.6
		c-1,0.4-1.9,1-2.6,1.7c-0.7,0.8-1.3,1.6-1.8,2.7c-0.5,1.1-0.8,2.2-0.9,3.5H162c0-1.3-0.2-2.5-0.5-3.6c-0.4-1.1-0.9-2-1.5-2.7
		c-0.7-0.7-1.5-1.3-2.4-1.7C156.5,137.4,155.5,137.2,154.4,137.2z"/>
	<path id="XMLID_70_" d="M170.5,160.7v-24.9h1.3c0.4,0,0.7,0.2,0.8,0.6l0.2,3.8c1.1-1.4,2.5-2.6,4-3.5c1.5-0.9,3.2-1.3,5-1.3
		c1.4,0,2.6,0.2,3.6,0.7c1,0.4,1.9,1.1,2.6,1.9c0.7,0.8,1.2,1.8,1.5,3c0.3,1.1,0.5,2.4,0.5,3.9v15.9h-2.4v-15.9
		c0-2.3-0.5-4.2-1.6-5.5s-2.7-2-4.9-2c-1.6,0-3.1,0.4-4.5,1.3c-1.4,0.8-2.6,2-3.8,3.5v18.7H170.5z"/>
</g>
<g id="XMLID_28_">
	<path id="XMLID_39_" d="M46.7,46.7v162h52.3c-0.2-1-0.3-2-0.4-2H48.7v-158h158v158h-50.2c-0.2,0-0.3,1-0.5,2h52.6v-162H46.7z"/>
</g>
<path id="XMLID_29_" d="M157.5,176.7c0,57.4-29.8,68.9-29.8,68.9s-29.8-7.6-29.8-68.9c0,0,11.9,2.6,29.8,2.6
	S157.5,176.7,157.5,176.7z"/>
</svg>
