<?xml version="1.0" encoding="utf-8"?>
<!-- Generator: Adobe Illustrator 19.0.0, SVG Export Plug-In . SVG Version: 6.00 Build 0)  -->
<svg version="1.1" id="Laag_1" xmlns="http://www.w3.org/2000/svg" xmlns:xlink="http://www.w3.org/1999/xlink" x="0px" y="0px"
	 viewBox="0 0 100 100" style="enable-background:new 0 0 100 100;" xml:space="preserve">
<style type="text/css">
	.st0{fill:#003A47;}
</style>
<path id="XMLID_177_" class="st0" d="M70.4,20.5c-0.5,0-0.8,0.4-0.8,0.8v8.2c0,0.5,0.4,0.8,0.8,0.8h8.2c0.5,0,0.8-0.4,0.8-0.8v-8.2
	c0-0.5-0.4-0.8-0.8-0.8H70.4z M69.6,79.3v-2.4c0-1.4,1.1-2.4,2.4-2.4s2.4,1.1,2.4,2.4v2.4h4.9v-2.4c0-1.4,1.1-2.4,2.4-2.4
	s2.4,1.1,2.4,2.4v4.9c0,1.4-1.1,2.4-2.4,2.4H62.2c-1.4,0-2.4-1.1-2.4-2.4v-4.9c0-1.4,1.1-2.4,2.4-2.4s2.4,1.1,2.4,2.4v2.4H69.6
	L69.6,79.3z M54.9,45h2.4c1.4,0,2.4,1.1,2.4,2.4s-1.1,2.4-2.4,2.4h-9.8c-1.4,0-2.4-1.1-2.4-2.4s1.1-2.4,2.4-2.4H50v-4.9h-7.3
	c-1.4,0-2.4-1.1-2.4-2.4s1.1-2.4,2.4-2.4h14.7c1.4,0,2.4,1.1,2.4,2.4s-1.1,2.4-2.4,2.4h-2.4V45z M79.4,49.9h-2.4
	c-1.4,0-2.4-1.1-2.4-2.4s1.1-2.4,2.4-2.4h2.4v-2.4c0-1.4,1.1-2.4,2.4-2.4s2.4,1.1,2.4,2.4v9.8c0,1.4-1.1,2.4-2.4,2.4
	s-2.4-1.1-2.4-2.4V49.9z M54.9,59.7h-2.4c-1.4,0-2.4-1.1-2.4-2.4s1.1-2.4,2.4-2.4h4.9c1.4,0,2.4,1.1,2.4,2.4v9.8
	c0,1.4-1.1,2.4-2.4,2.4H42.7c-1.4,0-2.4-1.1-2.4-2.4s1.1-2.4,2.4-2.4h12.2V59.7L54.9,59.7z M70.4,15.6h8.2c3.2,0,5.7,2.6,5.7,5.7
	v8.2c0,3.2-2.6,5.7-5.7,5.7h-8.2c-3.2,0-5.7-2.6-5.7-5.7v-8.2C64.7,18.2,67.2,15.6,70.4,15.6z M21.4,15.6h8.2c3.2,0,5.7,2.6,5.7,5.7
	v8.2c0,3.2-2.6,5.7-5.7,5.7h-8.2c-3.2,0-5.7-2.6-5.7-5.7v-8.2C15.7,18.2,18.3,15.6,21.4,15.6z M21.4,20.5c-0.5,0-0.8,0.4-0.8,0.8
	v8.2c0,0.5,0.4,0.8,0.8,0.8h8.2c0.5,0,0.8-0.4,0.8-0.8v-8.2c0-0.5-0.4-0.8-0.8-0.8H21.4z M21.4,64.6h8.2c3.2,0,5.7,2.6,5.7,5.7v8.2
	c0,3.2-2.6,5.7-5.7,5.7h-8.2c-3.2,0-5.7-2.6-5.7-5.7v-8.2C15.7,67.2,18.3,64.6,21.4,64.6z M21.4,69.5c-0.5,0-0.8,0.4-0.8,0.8v8.2
	c0,0.5,0.4,0.8,0.8,0.8h8.2c0.5,0,0.8-0.4,0.8-0.8v-8.2c0-0.5-0.4-0.8-0.8-0.8H21.4z M54.9,20.5H42.7c-1.4,0-2.4-1.1-2.4-2.4
	s1.1-2.4,2.4-2.4h14.7c1.4,0,2.4,1.1,2.4,2.4v9.8c0,1.4-1.1,2.4-2.4,2.4s-2.4-1.1-2.4-2.4V20.5z M42.7,30.3c-1.4,0-2.4-1.1-2.4-2.4
	c0-1.4,1.1-2.4,2.4-2.4h4.9c1.4,0,2.4,1.1,2.4,2.4c0,1.4-1.1,2.4-2.4,2.4H42.7z M18.2,59.7c-1.4,0-2.4-1.1-2.4-2.4s1.1-2.4,2.4-2.4
	H28c1.4,0,2.4,1.1,2.4,2.4s-1.1,2.4-2.4,2.4H18.2z M37.8,59.7c-1.4,0-2.4-1.1-2.4-2.4s1.1-2.4,2.4-2.4h4.9c1.4,0,2.4,1.1,2.4,2.4
	s-1.1,2.4-2.4,2.4H37.8z M45.1,79.3v2.4c0,1.4-1.1,2.4-2.4,2.4s-2.4-1.1-2.4-2.4v-4.9c0-1.4,1.1-2.4,2.4-2.4h9.8
	c1.4,0,2.4,1.1,2.4,2.4s-1.1,2.4-2.4,2.4H45.1z M35.3,45h2.4c1.4,0,2.4,1.1,2.4,2.4s-1.1,2.4-2.4,2.4h-4.9c-1.4,0-2.4-1.1-2.4-2.4
	V45H28c-1.4,0-2.4-1.1-2.4-2.4s1.1-2.4,2.4-2.4h4.9c1.4,0,2.4,1.1,2.4,2.4V45z M15.7,42.6c0-1.4,1.1-2.4,2.4-2.4s2.4,1.1,2.4,2.4
	v4.9c0,1.4-1.1,2.4-2.4,2.4s-2.4-1.1-2.4-2.4V42.6z M64.7,42.6c0-1.4,1.1-2.4,2.4-2.4s2.4,1.1,2.4,2.4v9.8c0,1.4-1.1,2.4-2.4,2.4
	s-2.4-1.1-2.4-2.4V42.6z M74.5,64.6v-2.4c0-1.4,1.1-2.4,2.4-2.4h4.9c1.4,0,2.4,1.1,2.4,2.4c0,1.4-1.1,2.4-2.4,2.4h-2.4v2.4
	c0,1.4-1.1,2.4-2.4,2.4h-9.8c-1.4,0-2.4-1.1-2.4-2.4v-4.9c0-1.4,1.1-2.4,2.4-2.4s2.4,1.1,2.4,2.4v2.4H74.5z M5.9,23
	c0,1.4-1.1,2.4-2.4,2.4S1,24.3,1,23v-9.8C1,6.4,6.5,1,13.3,1h9.8c1.4,0,2.4,1.1,2.4,2.4s-1.1,2.4-2.4,2.4h-9.8
	c-4.1,0-7.3,3.3-7.3,7.3V23z M76.9,5.9c-1.4,0-2.4-1.1-2.4-2.4S75.6,1,76.9,1h9.8C93.5,1,99,6.4,99,13.2V23c0,1.4-1.1,2.4-2.4,2.4
	s-2.4-1.1-2.4-2.4v-9.8c0-4.1-3.3-7.3-7.3-7.3H76.9z M23.1,94c1.4,0,2.4,1.1,2.4,2.4s-1.1,2.4-2.4,2.4h-9.8C6.5,98.9,1,93.4,1,86.6
	v-9.8c0-1.4,1.1-2.4,2.4-2.4s2.4,1.1,2.4,2.4v9.8c0,4.1,3.3,7.3,7.3,7.3H23.1z M94.1,76.8c0-1.4,1.1-2.4,2.4-2.4s2.4,1.1,2.4,2.4
	v9.8c0,6.8-5.5,12.2-12.2,12.2h-9.8c-1.4,0-2.4-1.1-2.4-2.4s1.1-2.4,2.4-2.4h9.8c4.1,0,7.3-3.3,7.3-7.3V76.8z"/>
</svg>
