<?xml version="1.0" encoding="utf-8"?>
<!-- Generator: Adobe Illustrator 19.0.0, SVG Export Plug-In . SVG Version: 6.00 Build 0)  -->
<svg version="1.1" id="Laag_1" xmlns="http://www.w3.org/2000/svg" xmlns:xlink="http://www.w3.org/1999/xlink" x="0px" y="0px"
	 viewBox="-99 101 100 100" style="enable-background:new -99 101 100 100;" xml:space="preserve">
<style type="text/css">
	.st0{fill:#1B1464;}
</style>
<path id="XMLID_177_" class="st0" d="M-28.6,121.5c-0.5,0-0.8,0.4-0.8,0.8v8.2c0,0.5,0.4,0.8,0.8,0.8h8.2c0.5,0,0.8-0.4,0.8-0.8
	v-8.2c0-0.5-0.4-0.8-0.8-0.8H-28.6z M-29.4,180.3v-2.4c0-1.4,1.1-2.4,2.4-2.4s2.4,1.1,2.4,2.4v2.4h4.9v-2.4c0-1.4,1.1-2.4,2.4-2.4
	s2.4,1.1,2.4,2.4v4.9c0,1.4-1.1,2.4-2.4,2.4h-19.5c-1.4,0-2.4-1.1-2.4-2.4v-4.9c0-1.4,1.1-2.4,2.4-2.4s2.4,1.1,2.4,2.4v2.4H-29.4
	L-29.4,180.3z M-44.1,146h2.4c1.4,0,2.4,1.1,2.4,2.4c0,1.3-1.1,2.4-2.4,2.4h-9.8c-1.4,0-2.4-1.1-2.4-2.4c0-1.3,1.1-2.4,2.4-2.4h2.5
	v-4.9h-7.3c-1.4,0-2.4-1.1-2.4-2.4s1.1-2.4,2.4-2.4h14.7c1.4,0,2.4,1.1,2.4,2.4s-1.1,2.4-2.4,2.4H-44L-44.1,146L-44.1,146z
	 M-19.6,150.9H-22c-1.4,0-2.4-1.1-2.4-2.4s1.1-2.4,2.4-2.4h2.4v-2.4c0-1.4,1.1-2.4,2.4-2.4s2.4,1.1,2.4,2.4v9.8
	c0,1.4-1.1,2.4-2.4,2.4s-2.4-1.1-2.4-2.4V150.9z M-44.1,160.7h-2.4c-1.4,0-2.4-1.1-2.4-2.4s1.1-2.4,2.4-2.4h4.9
	c1.4,0,2.4,1.1,2.4,2.4v9.8c0,1.4-1.1,2.4-2.4,2.4h-14.7c-1.4,0-2.4-1.1-2.4-2.4c0-1.3,1.1-2.4,2.4-2.4h12.2V160.7L-44.1,160.7z
	 M-28.6,116.6h8.2c3.2,0,5.7,2.6,5.7,5.7v8.2c0,3.2-2.6,5.7-5.7,5.7h-8.2c-3.2,0-5.7-2.6-5.7-5.7v-8.2
	C-34.3,119.2-31.8,116.6-28.6,116.6z M-77.6,116.6h8.2c3.2,0,5.7,2.6,5.7,5.7v8.2c0,3.2-2.6,5.7-5.7,5.7h-8.2
	c-3.2,0-5.7-2.6-5.7-5.7v-8.2C-83.3,119.2-80.7,116.6-77.6,116.6z M-77.6,121.5c-0.5,0-0.8,0.4-0.8,0.8v8.2c0,0.5,0.4,0.8,0.8,0.8
	h8.2c0.5,0,0.8-0.4,0.8-0.8v-8.2c0-0.5-0.4-0.8-0.8-0.8H-77.6z M-77.6,165.6h8.2c3.2,0,5.7,2.6,5.7,5.7v8.2c0,3.2-2.6,5.7-5.7,5.7
	h-8.2c-3.2,0-5.7-2.6-5.7-5.7v-8.2C-83.3,168.2-80.7,165.6-77.6,165.6z M-77.6,170.5c-0.5,0-0.8,0.4-0.8,0.8v8.2
	c0,0.5,0.4,0.8,0.8,0.8h8.2c0.5,0,0.8-0.4,0.8-0.8v-8.2c0-0.5-0.4-0.8-0.8-0.8H-77.6z M-44.1,121.5h-12.2c-1.4,0-2.4-1.1-2.4-2.4
	c0-1.3,1.1-2.4,2.4-2.4h14.7c1.4,0,2.4,1.1,2.4,2.4v9.8c0,1.4-1.1,2.4-2.4,2.4s-2.4-1.1-2.4-2.4L-44.1,121.5L-44.1,121.5z
	 M-56.3,131.3c-1.4,0-2.4-1.1-2.4-2.4c0-1.4,1.1-2.4,2.4-2.4h4.9c1.4,0,2.4,1.1,2.4,2.4c0,1.4-1.1,2.4-2.4,2.4H-56.3z M-80.8,160.7
	c-1.4,0-2.4-1.1-2.4-2.4s1.1-2.4,2.4-2.4h9.8c1.4,0,2.4,1.1,2.4,2.4s-1.1,2.4-2.4,2.4H-80.8z M-61.2,160.7c-1.4,0-2.4-1.1-2.4-2.4
	s1.1-2.4,2.4-2.4h4.9c1.4,0,2.4,1.1,2.4,2.4s-1.1,2.4-2.4,2.4H-61.2z M-53.9,180.3v2.4c0,1.4-1.1,2.4-2.4,2.4s-2.4-1.1-2.4-2.4v-4.9
	c0-1.4,1.1-2.4,2.4-2.4h9.8c1.4,0,2.4,1.1,2.4,2.4s-1.1,2.4-2.4,2.4L-53.9,180.3L-53.9,180.3z M-63.7,146h2.4c1.4,0,2.4,1.1,2.4,2.4
	c0,1.3-1.1,2.4-2.4,2.4h-4.9c-1.4,0-2.4-1.1-2.4-2.4V146H-71c-1.4,0-2.4-1.1-2.4-2.4c0-1.3,1.1-2.4,2.4-2.4h4.9
	c1.4,0,2.4,1.1,2.4,2.4C-63.7,143.6-63.7,146-63.7,146z M-83.3,143.6c0-1.4,1.1-2.4,2.4-2.4c1.3,0,2.4,1.1,2.4,2.4v4.9
	c0,1.4-1.1,2.4-2.4,2.4c-1.3,0-2.4-1.1-2.4-2.4C-83.3,148.5-83.3,143.6-83.3,143.6z M-34.3,143.6c0-1.4,1.1-2.4,2.4-2.4
	s2.4,1.1,2.4,2.4v9.8c0,1.4-1.1,2.4-2.4,2.4s-2.4-1.1-2.4-2.4V143.6z M-24.5,165.6v-2.4c0-1.4,1.1-2.4,2.4-2.4h4.9
	c1.4,0,2.4,1.1,2.4,2.4c0,1.4-1.1,2.4-2.4,2.4h-2.4v2.4c0,1.4-1.1,2.4-2.4,2.4h-9.8c-1.4,0-2.4-1.1-2.4-2.4v-4.9
	c0-1.4,1.1-2.4,2.4-2.4s2.4,1.1,2.4,2.4v2.4h4.9V165.6z M-93.1,124c0,1.4-1.1,2.4-2.4,2.4s-2.5-1.1-2.5-2.4v-9.8
	c0-6.8,5.5-12.2,12.3-12.2h9.8c1.4,0,2.4,1.1,2.4,2.4c0,1.3-1.1,2.4-2.4,2.4h-9.8c-4.1,0-7.3,3.3-7.3,7.3L-93.1,124L-93.1,124z
	 M-22.1,106.9c-1.4,0-2.4-1.1-2.4-2.4s1.1-2.5,2.4-2.5h9.8c6.8,0,12.3,5.4,12.3,12.2v9.8c0,1.4-1.1,2.4-2.4,2.4s-2.4-1.1-2.4-2.4
	v-9.8c0-4.1-3.3-7.3-7.3-7.3C-12.1,106.9-22.1,106.9-22.1,106.9z M-75.9,195c1.4,0,2.4,1.1,2.4,2.4c0,1.3-1.1,2.4-2.4,2.4h-9.8
	c-6.8,0.1-12.3-5.4-12.3-12.2v-9.8c0-1.4,1.1-2.4,2.4-2.4c1.3,0,2.4,1.1,2.4,2.4v9.8c0,4.1,3.3,7.3,7.3,7.3h10V195z M-4.9,177.8
	c0-1.4,1.1-2.4,2.4-2.4s2.4,1.1,2.4,2.4v9.8c0,6.8-5.5,12.2-12.2,12.2h-9.8c-1.4,0-2.4-1.1-2.4-2.4c0-1.3,1.1-2.4,2.4-2.4h9.8
	c4.1,0,7.3-3.3,7.3-7.3L-4.9,177.8L-4.9,177.8z"/>
</svg>
