<?xml version="1.0" encoding="utf-8"?>
<!-- Generator: Adobe Illustrator 19.0.0, SVG Export Plug-In . SVG Version: 6.00 Build 0)  -->
<svg version="1.1" id="Laag_1" xmlns="http://www.w3.org/2000/svg" xmlns:xlink="http://www.w3.org/1999/xlink" x="0px" y="0px"
	 viewBox="0 0 233.8 295.3" style="enable-background:new 0 0 233.8 295.3;" xml:space="preserve">
<style type="text/css">
	.st0{fill:#9B9B9B;}
	.st1{fill:#1B1464;}
	.st2{opacity:0.1;fill:#F2F2F2;}
	.st3{fill:#A4A4A4;}
</style>
<g id="XMLID_123_">
	<path id="XMLID_126_" class="st0" d="M233.8,25c0,251.3-87.9,241.3-116.9,270.3C87.3,265.7,0,278.8,0,25c18.7,0,23.9-8.3,24.4-19.3
		c0,0,61.1-5.7,92.5-5.7c31,0,92.5,5.7,92.5,5.7C210.4,18.1,213.4,25,233.8,25z"/>
	<path id="XMLID_125_" class="st1" d="M217.2,178.6c-60.6,30.8-129.1-26.7-205-16.8c25.1,113.1,82,110.7,104.8,133.4
		C138.1,274.1,190.3,273.7,217.2,178.6z"/>
	<path id="XMLID_124_" class="st2" d="M233.8,29c0-1.3,0-2.6,0-4c-20.5,0-23.4-6.9-24.4-19.3c0,0-61.5-5.7-92.5-5.7
		C85.4,0,24.4,5.7,24.4,5.7C23.9,16.7,18.7,25,0,25c0,126.6,21.7,186.8,47.2,219L233.8,29z"/>
	<g id="XMLID_27_">
		<path id="XMLID_32_" class="st1" d="M101.5,169.8l-0.5-6.5c-1.5-13.4,3-28.1,15.4-43c11.2-13.2,17.4-22.9,17.4-34
			c0-12.7-8-21.1-23.6-21.4c-8.9,0-18.9,3-25.1,7.7l-6-15.7c8.2-6,22.4-9.9,35.5-9.9c28.6,0,41.5,17.6,41.5,36.5
			c0,16.9-9.4,29.1-21.4,43.2c-10.9,12.9-14.9,23.9-14.2,36.5l0.2,6.5H101.5z M96,204.6c0-9.2,6.2-15.7,14.9-15.7
			s14.7,6.5,14.7,15.7c0,8.7-5.7,15.4-14.9,15.4C102,220,96,213.3,96,204.6z"/>
	</g>
	<g id="XMLID_28_">
		<path id="XMLID_30_" class="st3" d="M97.6,204.3c0-9.2,6.2-15.7,14.9-15.7s14.7,6.5,14.7,15.7c0,8.9-5.7,15.7-14.9,15.7
			C103.6,220,97.6,213.3,97.6,204.3z"/>
	</g>
</g>
</svg>
