<?xml version="1.0" encoding="utf-8"?>
<!-- Generator: Adobe Illustrator 19.0.0, SVG Export Plug-In . SVG Version: 6.00 Build 0)  -->
<svg version="1.1" id="Laag_1" xmlns="http://www.w3.org/2000/svg" xmlns:xlink="http://www.w3.org/1999/xlink" x="0px" y="0px"
	 viewBox="0 0 233.8 294.1" style="enable-background:new 0 0 233.8 294.1;" xml:space="preserve">
<style type="text/css">
	.st0{fill:#1B1464;}
	.st1{opacity:0.1;fill:#F2F2F2;}
</style>
<g id="XMLID_224_">
	<path id="XMLID_219_" class="st0" d="M233.8,25c0,251.3-87.9,241.3-116.9,270.3C87.3,265.7,0,278.8,0,25c18.7,0,23.9-8.3,24.4-19.3
		c0,0,61.1-5.7,92.5-5.7c31,0,92.5,5.7,92.5,5.7C210.4,18.1,213.4,25,233.8,25z"/>
	<path id="XMLID_226_" class="st1" d="M233.8,29c0-1.3,0-2.6,0-4c-20.5,0-23.4-6.9-24.4-19.3c0,0-61.5-5.7-92.5-5.7
		C85.4,0,24.4,5.7,24.4,5.7C23.9,16.7,18.7,25,0,25c0,126.6,21.7,186.8,47.2,219L233.8,29z"/>
</g>
</svg>
