<?xml version="1.0" encoding="utf-8"?>
<!-- Generator: Adobe Illustrator 19.0.0, SVG Export Plug-In . SVG Version: 6.00 Build 0)  -->
<svg version="1.1" id="Laag_1" xmlns="http://www.w3.org/2000/svg" xmlns:xlink="http://www.w3.org/1999/xlink" x="0px" y="0px"
	 viewBox="0 0 233.8 295.3" style="enable-background:new 0 0 233.8 295.3;" xml:space="preserve">
<style type="text/css">
	.st0{fill:#B3B3E5;}
	.st1{fill:#1B1464;}
	.st2{opacity:0.2;fill:#F2F2F2;}
	.st3{fill:#231C69;}
</style>
<g id="XMLID_123_">
	<path id="XMLID_126_" class="st0" d="M233.8,25c0,251.3-87.9,241.3-116.9,270.3C87.3,265.7,0,278.8,0,25c18.7,0,23.9-8.3,24.4-19.3
		c0,0,61.1-5.7,92.5-5.7c31,0,92.5,5.7,92.5,5.7C210.4,18.1,213.4,25,233.8,25z"/>
	<path id="XMLID_125_" class="st1" d="M217.2,178.6c-60.6,30.8-129.1-26.7-205-16.8c25.1,113.1,82,110.7,104.8,133.4
		C138.1,274.1,190.3,273.7,217.2,178.6z"/>
	<path id="XMLID_124_" class="st2" d="M233.8,29c0-1.3,0-2.6,0-4c-20.5,0-23.4-6.9-24.4-19.3c0,0-61.5-5.7-92.5-5.7
		C85.4,0,24.4,5.7,24.4,5.7C23.9,16.7,18.7,25,0,25c0,126.6,21.7,186.8,47.2,219L233.8,29z"/>
</g>
<g id="XMLID_5_">
	<path id="XMLID_6_" class="st3" d="M89.2,86.7c1.6-1.4,3.4-2.8,5.4-4.1c1.9-1.3,4-2.4,6.3-3.4c2.3-1,4.7-1.7,7.3-2.3
		c2.6-0.6,5.5-0.8,8.6-0.8c4.2,0,8,0.6,11.4,1.7c3.4,1.2,6.4,2.8,8.8,4.9c2.4,2.1,4.3,4.7,5.7,7.7c1.3,3,2,6.4,2,10.1
		c0,3.6-0.5,6.8-1.6,9.5c-1.1,2.7-2.4,5-4,6.9c-1.6,2-3.3,3.7-5.2,5.1c-1.9,1.4-3.6,2.8-5.3,4.1c-1.7,1.3-3.1,2.5-4.4,3.7
		c-1.2,1.2-2,2.6-2.2,4.1l-1.7,10.5h-12.2l-1.2-11.7c0-0.2-0.1-0.4-0.1-0.6c0-0.2,0-0.4,0-0.6c0-2.1,0.5-3.9,1.6-5.5
		c1.1-1.6,2.4-3,4-4.4c1.6-1.4,3.3-2.7,5.1-4c1.8-1.3,3.5-2.7,5.1-4.2c1.6-1.5,2.9-3.2,4-5.1c1.1-1.9,1.6-4.2,1.6-6.8
		c0-1.7-0.3-3.3-1-4.6c-0.6-1.4-1.5-2.5-2.7-3.5c-1.2-1-2.5-1.7-4.1-2.3c-1.6-0.5-3.3-0.8-5.2-0.8c-2.7,0-5,0.3-6.9,0.9
		c-1.9,0.6-3.5,1.3-4.8,2c-1.3,0.7-2.4,1.4-3.3,2c-0.9,0.6-1.7,0.9-2.4,0.9c-1.7,0-3-0.7-3.7-2.2L89.2,86.7z M102.8,171.5
		c0-1.5,0.3-2.9,0.8-4.2c0.6-1.3,1.3-2.5,2.3-3.5c1-1,2.1-1.7,3.5-2.3c1.3-0.6,2.8-0.9,4.3-0.9c1.5,0,2.9,0.3,4.2,0.9
		c1.3,0.6,2.5,1.3,3.5,2.3c1,1,1.7,2.1,2.3,3.5c0.6,1.3,0.9,2.8,0.9,4.2c0,1.5-0.3,3-0.9,4.3c-0.6,1.3-1.3,2.5-2.3,3.4
		c-1,1-2.1,1.7-3.5,2.3c-1.3,0.6-2.8,0.8-4.2,0.8c-1.5,0-3-0.3-4.3-0.8c-1.3-0.6-2.5-1.3-3.5-2.3c-1-1-1.8-2.1-2.3-3.4
		C103.1,174.5,102.8,173.1,102.8,171.5z"/>
</g>
</svg>
