<?xml version="1.0" encoding="utf-8"?>
<!-- Generator: Adobe Illustrator 19.0.0, SVG Export Plug-In . SVG Version: 6.00 Build 0)  -->
<svg version="1.1" id="Laag_1" xmlns="http://www.w3.org/2000/svg" xmlns:xlink="http://www.w3.org/1999/xlink" x="0px" y="0px"
	 viewBox="-62.8 -295.3 295.3 295.3" style="enable-background:new -62.8 -295.3 295.3 295.3;" xml:space="preserve">
<style type="text/css">
	.st0{display:none;}
	.st1{display:inline;}
	.st2{fill:none;stroke:#FFFFFF;stroke-width:9.7884;stroke-miterlimit:10;}
	.st3{opacity:0.1;fill:#FFFFFF;enable-background:new    ;}
	.st4{fill:#F4F5F5;}
	.st5{fill:#FFD400;}
	.st6{opacity:0.4;fill:#F2F2F2;enable-background:new    ;}
	.st7{fill:#FFE888;}
	.st8{fill:#1B1464;}
	.st9{opacity:3.000000e-002;fill:#F2F2F2;enable-background:new    ;}
</style>
<g id="White_VReq" class="st0">
	<g id="XMLID_925_" class="st1">
		<g id="XMLID_932_">
			<path id="XMLID_934_" class="st2" d="M194.8-262.8c0,235.6-82.4,226.2-109.6,253.4C57.4-37.1-24.5-24.8-24.5-262.8
				c17.6,0,22.4-7.8,22.9-18.1c0,0,57.2-5.4,86.8-5.4c29.1,0,86.8,5.4,86.8,5.4C172.9-269.2,175.6-262.8,194.8-262.8z"/>
			<path id="XMLID_933_" class="st3" d="M194.8-259c0-1.3,0-2.5,0-3.8c-19.2,0-21.9-6.4-22.9-18.1c0,0-57.7-5.4-86.8-5.4
				c-29.5,0-86.8,5.4-86.8,5.4c-0.5,10.3-5.3,18.1-22.9,18.1c0,118.7,20.4,175.1,44.3,205.3L194.8-259z"/>
		</g>
		<g id="XMLID_930_">
			<path id="XMLID_3_" class="st4" d="M62.1-204.7c1.5-1.4,3.2-2.6,5-3.8s3.8-2.3,5.9-3.2c2.1-0.9,4.4-1.6,6.9-2.1s5.2-0.8,8-0.8
				c3.9,0,7.5,0.5,10.7,1.6c3.2,1.1,6,2.6,8.3,4.6s4.1,4.4,5.3,7.3c1.3,2.8,1.9,6,1.9,9.5c0,3.4-0.5,6.4-1.5,8.9s-2.2,4.7-3.7,6.5
				s-3.1,3.4-4.9,4.8c-1.8,1.4-3.4,2.6-5,3.8c-1.6,1.2-2.9,2.4-4.1,3.5s-1.8,2.4-2.1,3.9l-1.6,9.9H80l-1.1-11c0-0.2-0.1-0.4-0.1-0.6
				c0-0.2,0-0.3,0-0.6c0-2,0.5-3.7,1.5-5.2s2.2-2.8,3.7-4.1c1.5-1.3,3.1-2.5,4.8-3.7c1.7-1.2,3.3-2.5,4.8-4c1.5-1.4,2.7-3,3.7-4.8
				s1.5-3.9,1.5-6.3c0-1.6-0.3-3.1-0.9-4.4c-0.6-1.3-1.5-2.4-2.5-3.3c-1.1-0.9-2.4-1.6-3.9-2.1s-3.1-0.7-4.9-0.7
				c-2.6,0-4.7,0.3-6.5,0.8c-1.8,0.6-3.3,1.2-4.5,1.9s-2.3,1.3-3.1,1.9c-0.9,0.6-1.6,0.8-2.3,0.8c-1.6,0-2.8-0.7-3.5-2L62.1-204.7z
				 M74.9-125.1c0-1.4,0.3-2.7,0.8-4c0.5-1.3,1.2-2.3,2.2-3.2c0.9-0.9,2-1.6,3.3-2.2c1.3-0.5,2.6-0.8,4.1-0.8c1.4,0,2.7,0.3,4,0.8
				s2.3,1.3,3.2,2.2c0.9,0.9,1.6,2,2.2,3.2c0.5,1.3,0.8,2.6,0.8,4s-0.3,2.8-0.8,4s-1.3,2.3-2.2,3.2c-0.9,0.9-2,1.6-3.2,2.1
				c-1.3,0.5-2.6,0.8-4,0.8s-2.8-0.3-4.1-0.8c-1.3-0.5-2.4-1.2-3.3-2.1c-0.9-0.9-1.6-2-2.2-3.2C75.2-122.3,74.9-123.6,74.9-125.1z"
				/>
		</g>
	</g>
</g>
<g id="Yellow_Full" class="st0">
	<g id="XMLID_358_" class="st1">
		<path id="XMLID_560_" class="st5" d="M201.8-270.5C201.8-19.3,114-29.4,85-0.4C55.4-30-31.9-16.9-31.9-270.5
			c18.7,0,23.9-8.3,24.4-19.3c0,0,61-5.7,92.5-5.7c31,0,92.5,5.7,92.5,5.7C178.5-277.4,181.4-270.5,201.8-270.5z"/>
		<path id="XMLID_558_" class="st6" d="M201.8-266.5c0-1.3,0-2.6,0-4c-20.4,0-23.4-6.9-24.4-19.3c0,0-61.5-5.7-92.5-5.7
			c-31.5,0-92.5,5.7-92.5,5.7c-0.4,10.9-5.5,19.3-24.3,19.3c0,126.6,21.7,186.7,47.2,218.9L201.8-266.5z"/>
	</g>
</g>
<g id="Yellow_HalfFull">
	<g id="XMLID_590_">
		<path id="XMLID_593_" class="st7" d="M201.7-270.5c0,251.1-87.8,241.1-116.8,270.1C55.3-30-32-16.9-32-270.5
			c18.7,0,23.9-8.3,24.4-19.3c0,0,61-5.7,92.5-5.7c31,0,92.5,5.7,92.5,5.7C178.3-277.4,181.3-270.5,201.7-270.5z"/>
		<path id="XMLID_592_" class="st5" d="M185.1-117.1c-60.6,30.7-129-26.7-204.9-16.8C5.2-20.8,62.1-23.3,84.9-0.5
			C106-21.6,158.2-22,185.1-117.1z"/>
		<path id="XMLID_591_" class="st6" d="M201.7-266.5c0-1.3,0-2.6,0-4c-20.4,0-23.4-6.9-24.4-19.3c0,0-61.5-5.7-92.5-5.7
			c-31.5,0-92.5,5.7-92.5,5.7c-0.4,10.9-5.6,19.3-24.3,19.3c0,126.6,21.7,186.7,47.2,218.9L201.7-266.5z"/>
	</g>
</g>
<g id="YellowQuestionMark">
	<g id="XMLID_1_">
		<path id="XMLID_6_" class="st5" d="M57.2-208.6c1.6-1.4,3.4-2.8,5.4-4.1c1.9-1.3,4-2.4,6.3-3.4s4.7-1.7,7.3-2.3
			c2.6-0.6,5.5-0.8,8.6-0.8c4.2,0,8,0.6,11.4,1.7c3.4,1.2,6.4,2.8,8.8,4.9c2.4,2.1,4.3,4.7,5.7,7.7c1.3,3,2,6.4,2,10.1
			c0,3.6-0.5,6.8-1.6,9.5s-2.4,5-4,6.9c-1.6,2-3.3,3.7-5.2,5.1c-1.9,1.4-3.6,2.8-5.3,4.1s-3.1,2.5-4.4,3.7c-1.2,1.2-2,2.6-2.2,4.1
			l-1.7,10.5H76.1l-1.2-11.7c0-0.2-0.1-0.4-0.1-0.6c0-0.2,0-0.4,0-0.6c0-2.1,0.5-3.9,1.6-5.5c1.1-1.6,2.4-3,4-4.4
			c1.6-1.4,3.3-2.7,5.1-4c1.8-1.3,3.5-2.7,5.1-4.2s2.9-3.2,4-5.1c1.1-1.9,1.6-4.2,1.6-6.8c0-1.7-0.3-3.3-1-4.6
			c-0.6-1.4-1.5-2.5-2.7-3.5s-2.5-1.7-4.1-2.3c-1.6-0.5-3.3-0.8-5.2-0.8c-2.7,0-5,0.3-6.9,0.9c-1.9,0.6-3.5,1.3-4.8,2
			s-2.4,1.4-3.3,2c-0.9,0.6-1.7,0.9-2.4,0.9c-1.7,0-3-0.7-3.7-2.2L57.2-208.6z M70.8-123.8c0-1.5,0.3-2.9,0.8-4.2
			c0.6-1.3,1.3-2.5,2.3-3.5s2.1-1.7,3.5-2.3c1.3-0.6,2.8-0.9,4.3-0.9s2.9,0.3,4.2,0.9c1.3,0.6,2.5,1.3,3.5,2.3s1.7,2.1,2.3,3.5
			c0.6,1.3,0.9,2.8,0.9,4.2c0,1.5-0.3,3-0.9,4.3s-1.3,2.5-2.3,3.4c-1,1-2.1,1.7-3.5,2.3c-1.3,0.6-2.8,0.8-4.2,0.8
			c-1.5,0-3-0.3-4.3-0.8c-1.3-0.6-2.5-1.3-3.5-2.3s-1.8-2.1-2.3-3.4C71.1-120.8,70.8-122.2,70.8-123.8z"/>
	</g>
</g>
<g id="DeepPurple" class="st0">
	<g id="XMLID_659_" class="st1">
		<path id="XMLID_661_" class="st8" d="M201.7-270.1c0,251.6-88,241.6-117.1,270.6C55-29.1-32.4-16-32.4-270.1
			c18.8,0,23.9-8.3,24.4-19.3c0,0,61.1-5.7,92.7-5.7c31.1,0,92.7,5.7,92.7,5.7C178.3-276.9,181.2-270.1,201.7-270.1z"/>
		<path id="XMLID_660_" class="st9" d="M201.7-266.1c0-1.3,0-2.7,0-4c-20.5,0-23.4-6.9-24.4-19.3c0,0-61.6-5.7-92.7-5.7
			c-31.5,0-92.6,5.7-92.6,5.7c-0.5,11-5.6,19.3-24.4,19.3c0,126.8,21.8,187,47.3,219.3L201.7-266.1z"/>
	</g>
</g>
</svg>
