<?xml version="1.0" encoding="utf-8"?>
<!-- Generator: Adobe Illustrator 19.0.0, SVG Export Plug-In . SVG Version: 6.00 Build 0)  -->
<svg version="1.1" id="Laag_1" xmlns="http://www.w3.org/2000/svg" xmlns:xlink="http://www.w3.org/1999/xlink" x="0px" y="0px"
	 viewBox="0 0 233.8 295.3" style="enable-background:new 0 0 233.8 295.3;" xml:space="preserve">
<style type="text/css">
	.st0{fill:#D6D6D6;}
	.st1{opacity:0.5;fill:#FFFFFF;}
	.st2{fill:#231C69;}
</style>
<g id="XMLID_12_">
	<g id="XMLID_250_">
		<path id="XMLID_252_" class="st0" d="M233.8,24.8c0,251.1-87.8,241-116.8,270C87.4,265.3,0.2,278.4,0.2,24.8
			c18.7,0,23.9-8.3,24.4-19.3c0,0,61-5.7,92.5-5.7c31,0,92.5,5.7,92.5,5.7C210.5,18,213.4,24.8,233.8,24.8z"/>
		<path id="XMLID_251_" class="st1" d="M233.8,28.8c0-1.3,0-2.6,0-4c-20.4,0-23.4-6.9-24.4-19.3c0,0-61.5-5.7-92.5-5.7
			c-31.5,0-92.5,5.7-92.5,5.7c-0.5,10.9-5.6,19.3-24.4,19.3c0,126.5,21.7,186.6,47.2,218.8L233.8,28.8z"/>
	</g>
	<g id="XMLID_266_">
		<path id="XMLID_2_" class="st2" d="M92.5,86.7c1.6-1.4,3.4-2.8,5.4-4.1c1.9-1.3,4-2.4,6.3-3.4c2.3-1,4.7-1.7,7.3-2.3
			c2.6-0.6,5.5-0.8,8.6-0.8c4.2,0,8,0.6,11.4,1.7c3.4,1.2,6.4,2.8,8.8,4.9c2.4,2.1,4.3,4.7,5.7,7.7c1.3,3,2,6.4,2,10.1
			c0,3.6-0.5,6.8-1.6,9.5c-1.1,2.7-2.4,5-4,6.9c-1.6,2-3.3,3.7-5.2,5.1c-1.9,1.4-3.6,2.8-5.3,4.1c-1.7,1.3-3.1,2.5-4.4,3.7
			c-1.2,1.2-2,2.6-2.2,4.1l-1.7,10.5h-12.2l-1.2-11.7c0-0.2-0.1-0.4-0.1-0.6c0-0.2,0-0.4,0-0.6c0-2.1,0.5-3.9,1.6-5.5
			c1.1-1.6,2.4-3,4-4.4c1.6-1.4,3.3-2.7,5.1-4c1.8-1.3,3.5-2.7,5.1-4.2c1.6-1.5,2.9-3.2,4-5.1c1.1-1.9,1.6-4.2,1.6-6.8
			c0-1.7-0.3-3.3-1-4.6c-0.6-1.4-1.5-2.5-2.7-3.5c-1.2-1-2.5-1.7-4.1-2.3c-1.6-0.5-3.3-0.8-5.2-0.8c-2.7,0-5,0.3-6.9,0.9
			c-1.9,0.6-3.5,1.3-4.8,2c-1.3,0.7-2.4,1.4-3.3,2c-0.9,0.6-1.7,0.9-2.4,0.9c-1.7,0-3-0.7-3.7-2.2L92.5,86.7z M106.1,171.5
			c0-1.5,0.3-2.9,0.8-4.2c0.6-1.3,1.3-2.5,2.3-3.5c1-1,2.1-1.7,3.5-2.3c1.3-0.6,2.8-0.9,4.3-0.9c1.5,0,2.9,0.3,4.2,0.9
			c1.3,0.6,2.5,1.3,3.5,2.3c1,1,1.7,2.1,2.3,3.5c0.6,1.3,0.9,2.8,0.9,4.2c0,1.5-0.3,3-0.9,4.3c-0.6,1.3-1.3,2.5-2.3,3.4
			c-1,1-2.1,1.7-3.5,2.3c-1.3,0.6-2.8,0.8-4.2,0.8c-1.5,0-3-0.3-4.3-0.8c-1.3-0.6-2.5-1.3-3.5-2.3c-1-1-1.8-2.1-2.3-3.4
			C106.4,174.5,106.1,173.1,106.1,171.5z"/>
	</g>
</g>
</svg>
