<?xml version="1.0" encoding="utf-8"?>
<!-- Generator: Adobe Illustrator 19.0.0, SVG Export Plug-In . SVG Version: 6.00 Build 0)  -->
<svg version="1.1" id="Laag_1" xmlns="http://www.w3.org/2000/svg" xmlns:xlink="http://www.w3.org/1999/xlink" x="0px" y="0px"
	 viewBox="0 0 233.8 295.3" style="enable-background:new 0 0 233.8 295.3;" xml:space="preserve">
<style type="text/css">
	.st0{fill:none;stroke:#FFFFFF;stroke-width:9.7884;stroke-miterlimit:10;}
	.st1{opacity:0.1;fill:#FFFFFF;}
	.st2{fill:#F4F5F5;}
</style>
<g id="XMLID_925_">
	<g id="XMLID_932_">
		<path id="XMLID_934_" class="st0" d="M226.8,32.5c0,235.6-82.4,226.2-109.6,253.4C89.4,258.2,7.5,270.5,7.5,32.5
			c17.6,0,22.4-7.8,22.9-18.1c0,0,57.2-5.4,86.8-5.4c29.1,0,86.8,5.4,86.8,5.4C204.9,26.1,207.6,32.5,226.8,32.5z"/>
		<path id="XMLID_933_" class="st1" d="M226.8,36.3c0-1.3,0-2.5,0-3.8c-19.2,0-21.9-6.4-22.9-18.1c0,0-57.7-5.4-86.8-5.4
			c-29.5,0-86.8,5.4-86.8,5.4c-0.5,10.3-5.3,18.1-22.9,18.1c0,118.7,20.4,175.1,44.3,205.3L226.8,36.3z"/>
	</g>
	<g id="XMLID_930_">
		<path id="XMLID_2_" class="st2" d="M94.1,90.6c1.5-1.4,3.2-2.6,5-3.8c1.8-1.2,3.8-2.3,5.9-3.2c2.1-0.9,4.4-1.6,6.9-2.1
			c2.5-0.5,5.2-0.8,8-0.8c3.9,0,7.5,0.5,10.7,1.6c3.2,1.1,6,2.6,8.3,4.6c2.3,2,4.1,4.4,5.3,7.3c1.3,2.8,1.9,6,1.9,9.5
			c0,3.4-0.5,6.4-1.5,8.9c-1,2.5-2.2,4.7-3.7,6.5c-1.5,1.8-3.1,3.4-4.9,4.8s-3.4,2.6-5,3.8c-1.6,1.2-2.9,2.4-4.1,3.5
			s-1.8,2.4-2.1,3.9l-1.6,9.9H112l-1.1-11c0-0.2-0.1-0.4-0.1-0.6c0-0.2,0-0.3,0-0.6c0-2,0.5-3.7,1.5-5.2c1-1.5,2.2-2.8,3.7-4.1
			s3.1-2.5,4.8-3.7c1.7-1.2,3.3-2.5,4.8-4c1.5-1.4,2.7-3,3.7-4.8c1-1.8,1.5-3.9,1.5-6.3c0-1.6-0.3-3.1-0.9-4.4
			c-0.6-1.3-1.5-2.4-2.5-3.3c-1.1-0.9-2.4-1.6-3.9-2.1c-1.5-0.5-3.1-0.7-4.9-0.7c-2.6,0-4.7,0.3-6.5,0.8c-1.8,0.6-3.3,1.2-4.5,1.9
			c-1.2,0.7-2.3,1.3-3.1,1.9c-0.9,0.6-1.6,0.8-2.3,0.8c-1.6,0-2.8-0.7-3.5-2L94.1,90.6z M106.9,170.2c0-1.4,0.3-2.7,0.8-4
			c0.5-1.3,1.2-2.3,2.2-3.2c0.9-0.9,2-1.6,3.3-2.2c1.3-0.5,2.6-0.8,4.1-0.8c1.4,0,2.7,0.3,4,0.8c1.3,0.5,2.3,1.3,3.2,2.2
			c0.9,0.9,1.6,2,2.2,3.2c0.5,1.3,0.8,2.6,0.8,4c0,1.4-0.3,2.8-0.8,4c-0.5,1.2-1.3,2.3-2.2,3.2c-0.9,0.9-2,1.6-3.2,2.1
			c-1.3,0.5-2.6,0.8-4,0.8c-1.4,0-2.8-0.3-4.1-0.8c-1.3-0.5-2.4-1.2-3.3-2.1c-0.9-0.9-1.6-2-2.2-3.2
			C107.2,173,106.9,171.7,106.9,170.2z"/>
	</g>
</g>
</svg>
